<svg width="459" height="138" viewBox="0 0 459 138" fill="none" xmlns="http://www.w3.org/2000/svg">
<rect x="26.5928" y="41.5225" width="6.2963" height="56.177" rx="3.14815" fill="#6CC21B"/>
<rect x="13.2964" y="51.292" width="6.2963" height="36.6372" rx="3.14815" fill="#6CC21B"/>
<rect y="61.0615" width="6.2963" height="17.0973" rx="3.14815" fill="#6CC21B"/>
<rect opacity="0.5" x="186.149" y="17.0977" width="6.2963" height="105.027" rx="3.14815" fill="#A5C586"/>
<rect x="106.371" y="50.0703" width="6.2963" height="39.0796" rx="3.14815" fill="#6CC21B"/>
<rect opacity="0.5" x="265.928" y="41.5225" width="6.2963" height="54.9557" rx="3.14815" fill="#A5C586"/>
<rect opacity="0.5" x="385.595" y="54.9561" width="6.2963" height="28.0885" rx="3.14815" fill="#A5C586"/>
<rect x="39.8892" y="43.9648" width="6.2963" height="50.0708" rx="3.14815" fill="#6CC21B"/>
<rect opacity="0.5" x="199.446" y="23.2031" width="6.2963" height="91.5929" rx="3.14815" fill="#A5C586"/>
<rect opacity="0.5" x="119.667" y="43.9648" width="6.2963" height="50.0708" rx="3.14815" fill="#A5C586"/>
<rect opacity="0.5" x="279.224" y="50.0703" width="6.2963" height="39.0796" rx="3.14815" fill="#A5C586"/>
<rect opacity="0.5" x="398.892" y="35.416" width="6.2963" height="67.1681" rx="3.14815" fill="#A5C586"/>
<rect x="53.1855" y="34.1943" width="6.2963" height="69.6106" rx="3.14815" fill="#6CC21B"/>
<rect opacity="0.5" x="212.742" y="17.0977" width="6.2963" height="105.027" rx="3.14815" fill="#A5C586"/>
<rect opacity="0.5" x="132.964" y="56.1768" width="6.2963" height="26.8673" rx="3.14815" fill="#A5C586"/>
<rect opacity="0.5" x="292.521" y="61.0615" width="6.2963" height="15.8761" rx="3.14815" fill="#A5C586"/>
<rect opacity="0.5" x="412.188" y="39.0801" width="6.2963" height="59.8407" rx="3.14815" fill="#A5C586"/>
<rect x="66.4819" y="18.3184" width="6.2963" height="102.584" rx="3.14815" fill="#6CC21B"/>
<rect opacity="0.5" x="226.039" y="28.0889" width="6.2963" height="83.0443" rx="3.14815" fill="#A5C586"/>
<rect opacity="0.5" x="345.706" y="29.3096" width="6.2963" height="80.6018" rx="3.14815" fill="#A5C586"/>
<rect opacity="0.5" x="146.26" width="6.2963" height="138" rx="3.14815" fill="#A5C586"/>
<rect opacity="0.5" x="305.817" y="52.5137" width="6.2963" height="34.1947" rx="3.14815" fill="#A5C586"/>
<rect opacity="0.5" x="425.484" y="54.9561" width="6.2963" height="28.0885" rx="3.14815" fill="#A5C586"/>
<rect x="79.7783" y="35.416" width="6.2963" height="68.3894" rx="3.14815" fill="#6CC21B"/>
<rect opacity="0.5" x="239.335" y="45.1855" width="6.2963" height="47.6283" rx="3.14815" fill="#A5C586"/>
<rect opacity="0.5" x="359.002" y="29.3096" width="6.2963" height="80.6018" rx="3.14815" fill="#A5C586"/>
<rect opacity="0.5" x="159.557" y="20.7607" width="6.2963" height="97.6991" rx="3.14815" fill="#A5C586"/>
<rect opacity="0.5" x="319.113" y="20.7607" width="6.2963" height="97.6991" rx="3.14815" fill="#A5C586"/>
<rect opacity="0.5" x="438.781" y="46.4072" width="6.2963" height="46.4071" rx="3.14815" fill="#A5C586"/>
<rect x="93.0747" y="52.5137" width="6.2963" height="32.9735" rx="3.14815" fill="#6CC21B"/>
<rect opacity="0.5" x="252.631" y="26.8672" width="6.2963" height="84.2655" rx="3.14815" fill="#A5C586"/>
<rect opacity="0.5" x="372.299" y="17.0977" width="6.2963" height="103.805" rx="3.14815" fill="#A5C586"/>
<rect opacity="0.5" x="172.853" y="26.8672" width="6.2963" height="84.2655" rx="3.14815" fill="#A5C586"/>
<rect opacity="0.5" x="332.41" y="43.9648" width="6.2963" height="50.0708" rx="3.14815" fill="#A5C586"/>
<rect opacity="0.5" x="452.077" y="61.0615" width="6.2963" height="17.0973" rx="3.14815" fill="#A5C586"/>
</svg>
