<svg width="48" height="32" viewBox="0 0 48 32" fill="none" xmlns="http://www.w3.org/2000/svg">
<rect x="0.5" y="0.5" width="47" height="31" rx="15.5" fill="#6CC21B" fill-opacity="0.03"/>
<rect x="0.5" y="0.5" width="47" height="31" rx="15.5" stroke="#6CC21B"/>
<path d="M11.024 21C10.64 21 10.2987 20.9093 10 20.728C9.70133 20.536 9.46667 20.2373 9.296 19.832C9.12533 19.416 9.04 18.8827 9.04 18.232C9.04 17.56 9.14133 16.888 9.344 16.216C9.55733 15.5333 9.824 14.8827 10.144 14.264C10.464 13.6453 10.8053 13.0853 11.168 12.584C11.5307 12.0827 11.8613 11.672 12.16 11.352L12.96 12.12C12.672 12.4293 12.3627 12.8187 12.032 13.288C11.712 13.7573 11.408 14.2693 11.12 14.824C10.8427 15.3787 10.6133 15.944 10.432 16.52C10.2613 17.096 10.176 17.6453 10.176 18.168C10.176 18.7227 10.2507 19.128 10.4 19.384C10.5493 19.64 10.7947 19.768 11.136 19.768C11.424 19.768 11.6053 19.6773 11.68 19.496C11.7547 19.3147 11.792 19.096 11.792 18.84V18.632L12.768 18.552V18.76C12.768 19.0907 12.816 19.3413 12.912 19.512C13.008 19.6827 13.184 19.768 13.44 19.768C13.6213 19.768 13.7867 19.7307 13.936 19.656C14.096 19.5707 14.224 19.4213 14.32 19.208C14.416 18.9947 14.464 18.6853 14.464 18.28C14.464 17.6293 14.3573 16.9147 14.144 16.136C13.9307 15.3467 13.5787 14.5147 13.088 13.64C12.5973 12.7653 11.936 11.8693 11.104 10.952L12.16 10.12C12.7893 10.8133 13.328 11.5173 13.776 12.232C14.224 12.9467 14.5867 13.656 14.864 14.36C15.1413 15.0533 15.344 15.7307 15.472 16.392C15.6107 17.0427 15.68 17.656 15.68 18.232C15.68 18.7013 15.6 19.1493 15.44 19.576C15.28 19.992 15.04 20.3333 14.72 20.6C14.4107 20.8667 14.0213 21 13.552 21C13.2427 21 12.976 20.9413 12.752 20.824C12.5387 20.696 12.3733 20.5413 12.256 20.36C12.1493 20.1787 12.096 20.0027 12.096 19.832H12.432C12.432 19.992 12.3787 20.1627 12.272 20.344C12.176 20.5253 12.0267 20.68 11.824 20.808C11.6213 20.936 11.3547 21 11.024 21ZM22.3668 21.08C22.2388 20.568 22.1321 20.056 22.0468 19.544C21.9614 19.0213 21.8868 18.5093 21.8228 18.008C21.7588 17.5067 21.7054 17.016 21.6628 16.536C21.6201 16.056 21.5774 15.5867 21.5348 15.128C21.4921 14.6587 21.4441 14.232 21.3908 13.848C21.3374 13.464 21.2681 13.1227 21.1828 12.824C21.1081 12.5147 21.0121 12.2587 20.8948 12.056C20.7774 11.8427 20.6334 11.6827 20.4628 11.576C20.3028 11.4693 20.1054 11.416 19.8708 11.416C19.5828 11.416 19.3268 11.5067 19.1028 11.688C18.8894 11.8587 18.7188 12.0773 18.5908 12.344C18.4734 12.6107 18.4148 12.872 18.4148 13.128C18.4148 13.4587 18.4948 13.736 18.6548 13.96C18.8148 14.184 19.0334 14.3493 19.3108 14.456C19.5988 14.5627 19.9241 14.616 20.2868 14.616C20.5748 14.616 20.8788 14.584 21.1988 14.52C21.5294 14.456 21.8601 14.36 22.1908 14.232L22.3348 15.368C21.9401 15.5387 21.5508 15.6667 21.1668 15.752C20.7934 15.8267 20.4308 15.864 20.0788 15.864C19.5241 15.864 19.0281 15.768 18.5908 15.576C18.1641 15.384 17.8228 15.096 17.5668 14.712C17.3214 14.328 17.1988 13.864 17.1988 13.32C17.1988 12.7867 17.3161 12.28 17.5508 11.8C17.7961 11.3093 18.1321 10.9093 18.5588 10.6C18.9854 10.2907 19.4814 10.136 20.0468 10.136C20.5908 10.136 21.0281 10.264 21.3588 10.52C21.7001 10.776 21.9614 11.128 22.1428 11.576C22.3241 12.0133 22.4574 12.5147 22.5428 13.08C22.6388 13.6453 22.7134 14.2373 22.7668 14.856C22.8094 15.3467 22.8521 15.8533 22.8948 16.376C22.9374 16.8987 22.9854 17.4267 23.0388 17.96C23.1028 18.4827 23.1721 18.9893 23.2468 19.48C23.3321 19.9707 23.4388 20.4347 23.5668 20.872L22.3668 21.08ZM25.6172 20.2344C25.6172 19.9896 25.6927 19.7839 25.8438 19.6172C26 19.4453 26.224 19.3594 26.5156 19.3594C26.8073 19.3594 27.0286 19.4453 27.1797 19.6172C27.3359 19.7839 27.4141 19.9896 27.4141 20.2344C27.4141 20.474 27.3359 20.6771 27.1797 20.8438C27.0286 21.0104 26.8073 21.0938 26.5156 21.0938C26.224 21.0938 26 21.0104 25.8438 20.8438C25.6927 20.6771 25.6172 20.474 25.6172 20.2344ZM25.625 13.3359C25.625 13.0911 25.7005 12.8854 25.8516 12.7188C26.0078 12.5469 26.2318 12.4609 26.5234 12.4609C26.8151 12.4609 27.0365 12.5469 27.1875 12.7188C27.3438 12.8854 27.4219 13.0911 27.4219 13.3359C27.4219 13.5755 27.3438 13.7786 27.1875 13.9453C27.0365 14.112 26.8151 14.1953 26.5234 14.1953C26.2318 14.1953 26.0078 14.112 25.8516 13.9453C25.7005 13.7786 25.625 13.5755 25.625 13.3359ZM30.9491 17.672C30.7678 17.4693 30.6025 17.2933 30.4531 17.144C30.3038 16.9947 30.1545 16.8507 30.0051 16.712C29.8558 16.5733 29.6851 16.424 29.4931 16.264L30.6451 15.048C30.9331 15.2613 31.2051 15.496 31.4611 15.752C31.7171 16.008 31.9411 16.2587 32.1331 16.504L30.9491 17.672ZM34.7399 21.032L33.5719 20.568C34.0412 19.512 34.5319 18.584 35.0439 17.784C35.5665 16.9733 36.1425 16.264 36.7719 15.656C37.4012 15.048 38.1105 14.5147 38.8999 14.056L39.4919 15.08C38.9159 15.464 38.3879 15.8907 37.9079 16.36C37.4385 16.8293 37.0065 17.3253 36.6119 17.848C36.2172 18.36 35.8652 18.888 35.5559 19.432C35.2465 19.9653 34.9745 20.4987 34.7399 21.032ZM36.9959 16.104C36.6652 16.0187 36.3345 15.8907 36.0039 15.72C35.6839 15.5387 35.3852 15.32 35.1079 15.064C34.8412 14.7973 34.6225 14.488 34.4519 14.136C34.2919 13.784 34.2119 13.384 34.2119 12.936C34.2119 12.4027 34.3345 11.928 34.5799 11.512C34.8252 11.096 35.1719 10.7653 35.6199 10.52C36.0679 10.2747 36.5959 10.152 37.2039 10.152C37.4705 10.152 37.7265 10.1733 37.9719 10.216C38.2279 10.2587 38.4732 10.3227 38.7079 10.408L38.4999 11.608C38.2865 11.544 38.0679 11.496 37.8439 11.464C37.6199 11.4213 37.4065 11.4 37.2039 11.4C36.7559 11.4 36.4092 11.4907 36.1639 11.672C35.9292 11.8533 35.7639 12.0667 35.6679 12.312C35.5719 12.5467 35.5239 12.7653 35.5239 12.968C35.5239 13.3093 35.6199 13.624 35.8119 13.912C36.0145 14.2 36.2652 14.4507 36.5639 14.664C36.8732 14.8667 37.1932 15.0267 37.5239 15.144C37.8652 15.2507 38.1799 15.304 38.4679 15.304L36.9959 16.104Z" fill="#237425"/>
</svg>
