<svg width="54" height="48" viewBox="0 0 54 48" fill="none" xmlns="http://www.w3.org/2000/svg">
<path d="M35.5958 23.9981C35.5958 19.8836 33.2108 16.3143 29.7503 14.6006L27.7793 16.5746C30.8228 17.6688 33.0045 20.5833 33.0045 23.9981C33.0045 27.4008 30.84 30.3071 27.8153 31.4126L29.7833 33.3806C33.2258 31.6601 35.5958 28.1021 35.5958 23.9981Z" fill="#6CC21B"/>
<path opacity="0.4" d="M52 24.0112C52 17.8767 49.559 12.5551 46.0173 10L44 12.9431C47.115 14.5746 49.3479 18.92 49.3479 24.0112C49.3479 29.0845 47.1326 33.4176 44.0368 35.0658L46.051 38C49.5744 35.4348 52 30.13 52 24.0112Z" fill="#6CC21B"/>
<path opacity="0.4" d="M44 24.0088C44 19.1888 41.559 15.0076 38.0173 13L36 15.3125C39.115 16.5943 41.3479 20.0085 41.3479 24.0088C41.3479 27.995 39.1326 31.3995 36.0368 32.6946L38.051 35C41.5744 32.9845 44 28.8165 44 24.0088Z" fill="#6CC21B"/>
<path d="M29.625 24C29.625 21.4568 27.4215 19.3965 24.7043 19.3965V2.541C24.7043 1.96575 24.2055 1.5 23.5905 1.5C22.977 1.5 22.4783 1.96575 22.4783 2.541V3.06375C21.666 3.723 9.32325 14.8597 9.32325 14.8597H4.15875C2.69025 14.8597 1.5 15.972 1.5 17.346V30.6517C1.5 32.0265 2.69025 33.1388 4.15875 33.1388H9.324V33.1403C9.324 33.1403 16.5472 38.6632 22.479 44.919V45.4575C22.479 46.0327 22.9778 46.5 23.5912 46.5C24.2062 46.5 24.705 46.0327 24.705 45.4575V28.602C27.4222 28.602 29.625 26.541 29.625 24Z" fill="#6CC21B"/>
</svg>
