<svg width="303" height="192" viewBox="0 0 303 192" fill="none" xmlns="http://www.w3.org/2000/svg">
<g opacity="0.2">
<path d="M113.317 42.7968L235.41 7.41816C241.949 5.52295 248.965 6.20174 255.019 9.31527C261.073 12.4288 265.707 17.741 267.969 24.1622L268.428 25.6002L294.677 116.185C296.572 122.724 295.893 129.74 292.779 135.794C289.666 141.849 284.354 146.482 277.932 148.744L276.495 149.203L154.402 184.582C147.863 186.477 140.847 185.798 134.792 182.685C128.738 179.571 124.105 174.259 121.843 167.838L121.384 166.4L95.1349 75.815C93.2397 69.2761 93.9185 62.2599 97.032 56.2057C100.146 50.1514 105.458 45.5181 111.879 43.2561L113.317 42.7968L235.41 7.41816L113.317 42.7968ZM262.672 49.9372L201.431 108.325C200.838 108.891 200.138 109.332 199.372 109.623C198.606 109.914 197.789 110.049 196.97 110.02L195.981 109.905L113.01 93.3045L133.199 162.976C134.202 166.436 136.468 169.392 139.549 171.257C142.63 173.123 146.3 173.762 149.83 173.048L150.978 172.767L273.071 137.388C276.531 136.385 279.488 134.117 281.354 131.034C283.219 127.952 283.857 124.28 283.14 120.749L282.861 119.609L262.672 49.9372ZM238.833 19.2336L116.741 54.6122C113.281 55.6148 110.325 57.8815 108.459 60.9623C106.594 64.0432 105.955 67.713 106.669 71.2432L106.95 72.3912L109.151 79.9846L195.257 97.2131L258.813 36.6173L256.612 29.0239C255.609 25.5633 253.341 22.6065 250.259 20.741C247.176 18.8756 243.505 18.2378 239.974 18.9545L238.833 19.2336Z" fill="#237425"/>
<line x1="62.5911" y1="94.2115" x2="16.3983" y2="110.014" stroke="#237425" stroke-width="8" stroke-linecap="round"/>
<line x1="51.2718" y1="130.996" x2="5.07896" y2="146.799" stroke="#237425" stroke-width="8" stroke-linecap="round"/>
<line x1="89.472" y1="155.047" x2="43.2792" y2="170.85" stroke="#237425" stroke-width="8" stroke-linecap="round"/>
</g>
</svg>
